<svg xmlns="http://www.w3.org/2000/svg" version="1.1" xmlns:xlink="http://www.w3.org/1999/xlink" xmlns:svgjs="http://svgjs.com/svgjs" width="1400" height="900" preserveAspectRatio="none" viewBox="0 0 1400 900"><g mask="url(&quot;#SvgjsMask1145&quot;)" fill="none"><path d="M887.056100905947 35.78001879291142L701.0588004082622 197.46500538516833 862.7437870005191 383.4623058828531 1048.7410874982038 221.77731929059627z" fill="rgba(255, 214, 255, 0.7)" class="triangle-float1"></path><path d="M618.1336901416603 613.5471417039269L818.8562160238454 540.490116936084 745.7991912560025 339.76759105389885 545.0766653738174 412.82461582174176z" fill="rgba(255, 214, 255, 0.7)" class="triangle-float3"></path><path d="M199.17038209232996 460.7440454173761L222.24842678237377 682.3483410150595 381.790275200868 570.6359360925189z" fill="rgba(255, 214, 255, 0.7)" class="triangle-float2"></path><path d="M494.07768171735773 856.0316537096454L620.2524154992072 904.4655961386654 629.8159622518126 690.9865242513811z" fill="rgba(255, 214, 255, 0.7)" class="triangle-float1"></path><path d="M46.634,356.843C91.779,357.157,125.826,321.075,148.463,282.014C171.181,242.814,184.574,195.881,163.009,156.035C140.573,114.58,93.723,91.745,46.634,93.868C2.817,95.844,-32.273,127.049,-52.882,165.768C-72.161,201.987,-71.72,244.223,-52.767,280.613C-32.094,320.305,1.882,356.531,46.634,356.843" fill="rgba(255, 214, 255, 0.7)" class="triangle-float1"></path><path d="M1122.171,836.48C1150.441,834.839,1172.522,815.553,1187.412,791.466C1203.333,765.71,1215.045,735.068,1201.642,707.917C1186.909,678.072,1155.453,659.105,1122.171,659.304C1089.205,659.502,1060.611,680.192,1044.333,708.86C1028.272,737.146,1025.409,772.116,1042.347,799.886C1058.683,826.669,1090.852,838.298,1122.171,836.48" fill="rgba(255, 214, 255, 0.7)" class="triangle-float2"></path><path d="M768.815,618.467C795.776,618.12,819.057,601.365,832.521,578.004C845.966,554.676,850.18,525.297,835.539,502.701C821.827,481.539,794.009,478.641,768.815,479.686C745.868,480.637,723.765,488.749,711.032,507.863C696.701,529.378,690.237,556.767,702.207,579.68C714.958,604.087,741.28,618.821,768.815,618.467" fill="rgba(255, 214, 255, 0.7)" class="triangle-float2"></path><path d="M394.120233717245 741.9931229222766L443.9298542309255 624.649010594339 243.00887548217878 608.6066359877871z" fill="rgba(255, 214, 255, 0.7)" class="triangle-float2"></path><path d="M157.64 533.97 a183.39 183.39 0 1 0 366.78 0 a183.39 183.39 0 1 0 -366.78 0z" fill="rgba(255, 214, 255, 0.7)" class="triangle-float3"></path><path d="M862.5891556182885 738.6378673923999L680.0369068074053 664.8819712876183 788.8332595135068 921.1901162032832z" fill="rgba(255, 214, 255, 0.7)" class="triangle-float2"></path></g><defs><mask id="SvgjsMask1145"><rect width="1400" height="900" fill="#ffffff"></rect></mask><style>
            @keyframes float1 {
                0%{transform: translate(0, 0)}
                50%{transform: translate(-30px, 0) rotate(2deg)}
                100%{transform: translate(0, 0)}
            }

            .triangle-float1 {
                animation: float1 6s infinite;
            }

            @keyframes float2 {
                0%{transform: translate(0, 0)}
                50%{transform: translate(-5px, -5px) rotate(-2deg)}
                100%{transform: translate(0, 0)}
            }

            .triangle-float2 {
                animation: float2 6s infinite;
            }

            @keyframes float3 {
                0%{transform: translate(0, 0)}
                50%{transform: translate(0, -10px)}
                100%{transform: translate(0, 0)}
            }

            .triangle-float3 {
                animation: float3 3s infinite;
            }
        </style></defs></svg>