<svg xmlns="http://www.w3.org/2000/svg" version="1.1" xmlns:xlink="http://www.w3.org/1999/xlink" xmlns:svgjs="http://svgjs.com/svgjs" width="1400" height="900" preserveAspectRatio="none" viewBox="0 0 1400 900"><g mask="url(&quot;#SvgjsMask1009&quot;)" fill="none"><path d="M272.4879546180678 471.4026051851033L323.39111258502976 710.88313482401 511.96848425697453 420.49944721814137z" fill="rgba(187, 208, 255, 0.65)" class="triangle-float1"></path><path d="M605.22 839.71 a222.5 222.5 0 1 0 445 0 a222.5 222.5 0 1 0 -445 0z" fill="rgba(187, 208, 255, 0.65)" class="triangle-float3"></path><path d="M1465.5982251010282 601.4700960023666L1189.5888077174454 635.092813776273 1332.4554484905366 831.7318751748052z" fill="rgba(187, 208, 255, 0.65)" class="triangle-float2"></path><path d="M927.565,221.586C989.881,224.606,1053.014,201.31,1086.139,148.441C1121.217,92.455,1124.291,19.548,1089.242,-36.456C1055.964,-89.631,990.228,-107.841,927.565,-104.944C870.306,-102.297,817.875,-72.623,789.859,-22.616C762.458,26.293,766.015,85.428,793.552,134.261C821.621,184.038,870.486,218.82,927.565,221.586" fill="rgba(187, 208, 255, 0.65)" class="triangle-float2"></path><path d="M78.43078326131945 777.6979198491413L-30.771965890724147 748.4371314025927-20.06177398452519 926.8716493539323z" fill="rgba(187, 208, 255, 0.65)" class="triangle-float3"></path><path d="M1272.3890253550082 613.3440654278023L1164.7572227083772 807.5169773882739 1466.5619373154798 720.9758680744334z" fill="rgba(187, 208, 255, 0.65)" class="triangle-float1"></path><path d="M1332.476,867.496C1412.282,864.442,1465.721,794.914,1505.049,725.405C1543.586,657.293,1569.127,579.208,1535.596,508.498C1497.213,427.557,1422.047,362.85,1332.476,361.486C1240.959,360.093,1160.662,420.984,1118.354,502.147C1079.047,577.552,1092.402,666.188,1135.399,739.552C1177.844,811.975,1248.592,870.706,1332.476,867.496" fill="rgba(187, 208, 255, 0.65)" class="triangle-float1"></path><path d="M445.37646048507133 259.598939239933L487.0593603257371 455.70156488070324 683.1619859665074 414.0186650400375 641.4790861258416 217.91603939926722z" fill="rgba(187, 208, 255, 0.65)" class="triangle-float3"></path><path d="M18.22,621.582C52.837,621.265,90.487,614.596,107.786,584.61C125.078,554.636,114.267,517.309,94.936,488.608C77.939,463.373,48.645,451.612,18.22,451.635C-12.157,451.658,-41.095,463.684,-58.29,488.726C-78.281,517.838,-91.861,555.676,-74.237,586.279C-56.592,616.919,-17.137,621.906,18.22,621.582" fill="rgba(187, 208, 255, 0.65)" class="triangle-float3"></path><path d="M1001.048473270762 388.0511311693059L1008.4661698331531 494.1291341016222 1163.8743259504317 429.9635877918773z" fill="rgba(187, 208, 255, 0.65)" class="triangle-float1"></path></g><defs><mask id="SvgjsMask1009"><rect width="1400" height="900" fill="#ffffff"></rect></mask><style>
            @keyframes float1 {
                0%{transform: translate(0, 0)}
                50%{transform: translate(-10px, 0)}
                100%{transform: translate(0, 0)}
            }

            .triangle-float1 {
                animation: float1 5s infinite;
            }

            @keyframes float2 {
                0%{transform: translate(0, 0)}
                50%{transform: translate(-5px, -5px)}
                100%{transform: translate(0, 0)}
            }

            .triangle-float2 {
                animation: float2 4s infinite;
            }

            @keyframes float3 {
                0%{transform: translate(0, 0)}
                50%{transform: translate(0, -10px)}
                100%{transform: translate(0, 0)}
            }

            .triangle-float3 {
                animation: float3 6s infinite;
            }
        </style></defs></svg>